<svg xmlns="http://www.w3.org/2000/svg" xml:space="preserve" viewBox="0 0 1600 1563">
  <path fill="#A0BFAD" d="M1 1563V2h1593c4 0 6 1 6 6v1547c0 8 0 8-8 8H1m603-886-1 4h-1l-8 9-7 14-4 8a19362 19362 0 0 0-2-1l2 3-5 8-6 10-8 20c-1 3-2 9-5 10-7 4-8 8-5 14l-1 1c-5 0-7 4-6 7 2 6 0 10-1 15l-7 16-2-6-2 1c1 3-2 8 3 11v7l-1 1h-3l-2 19 1 3-1 2-1 8-1 3-1 3v2c-2 5-5 11-4 17l-1 5 1 10-1 4c-5 2-2 6-4 9l-1 13 3 2 1 1-1 31v14c0 3 2 5 3 8l-1 4v9l5 15v3l4 22 3 6v2h-1l-4-3v15h2l4-6 1 4 8 22 8 13 11 19c3 5 8 9 12 13v1c1 1 3 3 3 5 1 1 0 3-1 5h6l10 10-1 1 2-1 7 6 6 5 1 4 10 3-3 7c7-3 12-1 17 3 3 2 5 4 9 4l4 2c5 3 9 6 15 5l4 2h5l2 2 13 3 2 1 8 2c4 1 7 1 10 4s12 2 15 0h1l19 2c4 0 7-3 11-4l1 1 20 2v-4h10c4 2 6 2 10-1l-7-1c8-2 16-6 24-7 6 0 10-2 15-5 5-4 11-5 17-9a378 378 0 0 0 58-39l33-32 6-9h1c13-12 22-26 32-41 5-7 9-16 17-21-1-5 1-9 6-13 2-2 4-3 3-7 0-4 4-8 8-7v-6l8-14 9-22 7-15c3-4 3-10 9-12v-9l7-21h1l7-1c-1-5-5-10-2-16l3-9 4-9c3-5 2-9 2-15h1l6-19 2 8c2-8 0-16-1-25l1-1a206 206 0 0 0 2-12c3-2 2-5 1-9l1-2c2-1 6-2 4-5-3-4-1-7 0-10v-6l2-11 1-4a685 685 0 0 0-2-49l2-1 2-4 1-12-1-12h-1l-2 4-3-6 1-2 2-16-3 2-1-6-6-24 1-4v-5l-5-7-2-9 1-5h-1l-3 3-2-5-7-10v-2c0-2 0-4-3-5v-1l-2-9c-3-2-6-5-7-8v-9c-2 1-5 3-6 2-2-3-7-4-5-9l-6-3c-10-10-20-19-32-27l-11-7-24-9-6-5-6-3c-6-1-12-6-13-11-3 5-7 3-10 1l-10-2-8-5c2-1 1-2-1-2l-13-2h-7l4 5-6 1-16-1-16-3h-7v2h7v2l-7 1-17 3c-8 2-15 7-24 6l-2 1c-3 5-7 6-13 3v7l-3 1-5 3-4 2-10 5 1-4 5-4-2-2-13 9 2 4-8 3-2 2c-3 4-6 8-10 10-6 2-10 6-14 11-2 3-8 4-11 7-2 3-7 5-6 10h-1l-4 2-33 34-3 7-5 4c-3 2-7 3-8 8 0 1-3 3-5 3-5 1-6 3-3 8l-5 5c-2 2-6 3-6 7l-5-6-1 7 2 6-2 6h-1l-4 3-3 2c-3-2-4-1-6 5l3 2-3 6-4 8-1 1-2 4h-1m-89 201c0 9-1 18 3 26l1-6-2-7 3-11-1-4-4 2m567-226 3 16h2v-14c0-1-1-5-5-2M975 500l8 6h4l-1-4-11-5v3m-293 691h-8v2c7-2 13 4 20 0l-12-2m403-478v-6h-1v25h1v-19m-110 348-2-4h-2l-2 10 2 1 4-7m-15 16 1-3-1-1-4 5c0 3 2 5 4 7l1-1-1-7m-422-13-1-3c-2 4-3 7 0 10h1v-7m92 117h5l1-4h-5l-1 4M519 997v-11h-1v15h1v-4m564-217 1 3v-11h-1v8m-409 416v2h5v-1l-5-1M531 821l1 1 1-4h-2v3m535-212 2 1h1l-3-3v2m-1-15 1 2h1l-2-2m19 169v1-1M802 484z"/>
  <path fill="#CDE3D6" d="m1 1564 10-1h1581c8 0 8 0 8-8V8c0-5-2-6-6-6H1l1-1h1599v1563H1z"/>
  <path fill="#DCAA2A" d="M1061 851v1a27011 27011 0 0 1-15 49v1l-6 11c-14 34-28 68-48 99-13 21-28 42-42 62l-10 15h-1l-2 1-29 29a265 265 0 0 1-74 51c-17 10-35 15-55 19l-26 4h-2c-20 0-39 0-57-5h-9l-12-4-3-1-2-1c-20-8-38-16-55-29l-4-1-6-5-17-18-9-8-2-4c-13-16-22-34-30-53l-8-20-1-3a26549 26549 0 0 0-7-31l-4-24v-4l-2-21a1596 1596 0 0 1 2-61l4-24v-10l2-2v-4l2-7v-3l5-21v-2l3-6 10-30 13-33 28-56 11-21v-1l2-3 3-4v-2l18-25 2-1 29-37 3-6 4-5 4-3 30-31 7-8 3-1 41-33 11-9 3-3 10-5 5-2 5-3 2-1 4-1 36-13c9-3 18-3 27-5l13-2h16l5 1c19 1 37 6 53 15l27 13a169 169 0 0 1 72 59l11 15 3 6v1c10 22 18 45 21 68l4 19v2l2 30v19l-1 4-3 42-2 20v3l-2 8v3l-2 9v2l-8 35M684 619c-19 23-37 46-52 71-40 64-68 133-77 209-6 49-4 97 12 144 11 30 26 57 51 78 52 43 112 53 177 34 43-12 78-38 108-70 39-41 68-89 92-139 38-81 59-165 54-255-2-33-9-65-24-94-18-33-44-56-80-68l-8-4a99 99 0 0 0-59-19c-34-1-65 8-94 26-38 23-70 53-100 87z"/>
  <path fill="#ADBC93" d="m940 1089 10-15c14-20 29-41 42-62a634 634 0 0 0 54-110l-7 20v9c-6 2-6 8-9 12l-7 15-9 22-8 14v6c-4-1-8 3-8 7 1 4-1 5-3 7-5 4-7 8-6 13-8 5-12 14-17 21-10 15-19 29-32 41zm-187 104 26-4c20-4 38-9 55-19l44-25c11-8 21-17 30-26l29-29 2-1-6 9-33 32a276 276 0 0 1-58 39c-6 4-12 5-17 9-5 3-9 5-15 5-8 1-16 5-24 7l7 1c-4 3-6 3-10 1h-10v4l-20-3zm296-613-11-15a169 169 0 0 0-72-58l-27-14a130 130 0 0 0-58-16l6-1 15-1 9 5 10 2c3 2 7 4 10-1 1 5 7 10 13 11l6 3 6 5 24 9 11 7c12 8 22 17 32 27l6 3c-2 5 3 6 5 9 1 1 4-1 6-2v9c1 3 4 6 7 8l2 10zM603 681l-11 21-28 56-13 33-10 30-3 6a29 29 0 0 1 1-11l7-17c1-5 3-9 1-15-1-3 1-7 6-7l1-1c-3-6-2-10 5-14 3-1 4-7 5-10l8-20 6-10 5-9 4-9 7-14 9-9zm474-7-4-19c-3-23-11-46-21-68l7 10 2 5 3-3h1l-1 5 2 9 5 7v5l-1 4 6 24 1 6 3-2-3 17zM865 477l-13 2c-9 2-18 2-27 5l-36 13-4 1v-7c6 3 10 2 13-3l2-1c9 1 16-4 24-6l17-3 7-1v-2h-7v-2h7l17 4zm-329 567 9 20c8 19 17 37 30 53l2 4c-4-4-9-8-12-13l-11-19-8-13-8-22-2-4v-6zm223-532-10 9-41 33-3 1c-1-5 4-7 6-10 3-3 9-4 11-7 4-5 8-9 14-11 4-2 7-6 10-10l2-2a137 137 0 0 1 11-3zm-150 640 4 1c17 13 35 21 55 29l2 1h-4l-4-2c-6 1-10-2-15-5l-4-2c-4 0-6-2-9-4-5-4-10-6-17-3l3-7-10-3-1-5zm78 36h7c18 5 37 5 57 5-3 1-6 4-10 4l-20-2-3-1v1h3c-3 2-12 3-15 0s-6-3-10-4l-9-3zm-27-586-3 6-29 37-2 1 2-7 5-6c-1-4 3-5 5-7l5-5c-3-5-2-7 3-8 2 0 5-2 5-3 1-5 5-6 9-8zm414 189 1-20 3-42 1-4a244 244 0 0 1 2 30l-1 4-2 11v6c-1 3-3 6 0 10 2 3-2 4-4 5zM705 555l-7 8-30 31-4 3 3-6 33-34 5-2zm356 296 8-35c1 8 3 16 1 24l-2-8-7 19zm18-145-2-30 3 5 2-4h1v12l-3 4v12l-1 1zm-502 415 9 8 17 18-8-5-10-10h-6c1-2 2-4 1-5l-3-6zm49-475-18 25 4-7 3-7 3-5 3-3 5-3zm-97 222v8a617 617 0 0 1-5 15l1-5c-1-6 2-12 4-18z"/>
  <path fill="#A1BFAC" d="m515 878 4-2 1 4-3 11 2 7-1 6c-4-8-3-17-3-26z"/>
  <path fill="#ADBC93" d="M538 829a317 317 0 0 1-6 19l2-19h4z"/>
  <path fill="#A1BFAC" d="M760 512h-3l-3-4 13-9 2 2-5 4-1 4-3 3z"/>
  <path fill="#ADBC93" d="M1046 901c2-5 3-11 6-16-3 5 1 10 2 15l-8 1z"/>
  <path fill="#A1BFAC" d="m902 475-15 1-5-5h7l13 2c2 0 3 1 0 2zm180 177c4-3 5 1 5 2v14h-2l-3-16z"/>
  <path fill="#ADBC93" d="m529 1013 7 28c-1-2-3-3-3-5l-4-23zm-5-108a319 319 0 0 1-2 24l-1-15c1-3-2-7 3-9z"/>
  <path fill="#A1BFAC" d="M536 1044v6l-3 6h-2v-15l5 3zm439-545v-2l11 5 1 4h-4l-8-7z"/>
  <path fill="#ADBC93" d="m1054 875 7-23c0 5 1 9-2 14l-5 9zM525 986l4 24-5-14 1-10z"/>
  <path fill="#A1BFAC" d="m682 1191 12 2c-7 4-13-2-20 0v-2h8z"/>
  <path fill="#ADBC93" d="m523 961 2 21c-1-2-3-4-3-7l1-14z"/>
  <path fill="#A1BFAC" d="M1085 713v19h-1v-25h1v6zm-5-8v-12l3-4v12l-3 4zm-447-72-5 6-2-5 1-7 6 6zm341 429-3 6-2-1 2-10h2l1 5zm-14 15 1 7-1 1c-2-2-4-4-4-7l4-5 1 1-1 3zM521 914l1 15-3-2 2-13zm18-98-1 4c-5-2-2-7-3-10l2-1 2 7zm-1 249v6h-1c-3-3-2-6 0-10l1 4zm92 116 1-4h5l-1 4h-5zM519 997v4h-1v-15h1v11zm99-345-3 5-3-1c2-6 3-7 6-4z"/>
  <path fill="#ADBC93" d="M1083 780v-8h1v11l-1-3zm-410 404z"/>
  <path fill="#A1BFAC" d="m674 1195 5 2v1h-5v-3z"/>
  <path fill="#ADBC93" d="m1070 814 1-9-1 9zm2-12 1-8c1 3 2 6-1 8zm-540 51-1 7 1-7zm520-267-3-6c3 1 3 3 3 6zm-269-87-5 3 5-3zM531 821v-3h2l-1 4-1-1zm535-212v-2l3 3h-1l-2-1zm-458 64-3 4 3-4zm458-79 1 2h-1v-2zm18 169v1-1zm-501-50-2-2a2551 2551 0 0 0 2 2zm22-36-2 3 2-3zm-75 187-1 2 1-2zm65 278-1 1 1-1zm207-658z"/>
  <path fill="#241F1F" d="M684 619c30-34 62-64 100-87 29-18 60-27 94-26 21 0 41 6 59 19l8 4c36 12 62 35 80 68 15 29 22 61 24 94 5 90-16 174-54 255-24 50-53 98-92 139-30 32-65 58-108 70-65 19-125 9-177-34-25-21-40-48-51-78-16-47-18-95-12-144 9-76 37-145 77-209 15-25 33-48 52-71m29 494c9-1 20-2 29-5 27-10 49-28 69-49a603 603 0 0 0 146-328c5-39 4-78-5-116-3-13-8-26-16-37s-20-17-34-14c-10 2-21 5-30 9-28 13-52 33-73 55-56 55-98 120-125 193-24 64-35 130-26 199 3 22 8 43 20 62 10 17 23 30 45 31z"/>
  <path fill="#A0BFAD" d="M721 1195h-3v-1l3 1z"/>
  <path fill="#DCAA2A" d="M712 1113c-21-1-34-14-44-31-12-19-17-40-20-62-9-69 2-135 26-199 27-73 69-138 125-193 21-22 45-42 73-55 9-4 20-7 30-9 14-3 26 3 34 14s13 24 16 37c9 38 10 77 6 116a603 603 0 0 1-147 328c-20 21-42 39-69 49-9 3-20 4-30 5m-34-91c3 18 8 34 17 49 5 8 15 15 25 13 13-3 25-8 35-16 19-12 35-27 49-45l37-49c7-10 13-22 19-33a767 767 0 0 0 38-85l13-37a631 631 0 0 0 20-121c1-24-1-48-6-72-2-11-6-21-12-30l-3-3c-4 0-8-1-12 1-11 5-23 9-33 16a404 404 0 0 0-95 95 539 539 0 0 0-66 119 377 377 0 0 0-26 199z"/>
  <path fill="#A1BFAC" d="M678 1022a377 377 0 0 1 26-198 539 539 0 0 1 66-119 375 375 0 0 1 95-95c10-7 22-11 33-16 4-2 8-1 12-1l3 3c6 9 10 19 12 30 5 24 7 48 6 72a649 649 0 0 1-20 121l-13 37a693 693 0 0 1-38 85c-6 11-12 23-19 33l-37 49c-14 18-30 33-49 45-10 8-22 13-35 16-10 2-20-5-25-13-9-15-14-31-17-49z"/>
</svg>
